<svg width="203" height="199" viewBox="0 0 203 199" fill="none" xmlns="http://www.w3.org/2000/svg">
<g id="isologo" clip-path="url(#clip0_40_691)">
<path id="Vector" d="M202.461 156.77C199.078 156.77 195.696 156.868 192.362 156.672C155.792 154.32 119.565 156.868 83.6806 164.51C54.7576 170.683 27.0112 180.285 0.0490723 192.141C0.784402 195.767 0.637336 195.081 1.37267 198.706C8.67694 198.804 15.9322 198.951 23.2365 198.951C41.5217 198.951 59.8559 199 78.1411 198.902C80.5922 198.902 83.2394 198.412 85.4454 197.383C117.751 182.196 151.919 173.035 186.872 166.47C192.264 165.441 197.657 164.706 203.049 163.825C202.706 159.513 202.853 161.081 202.51 156.77H202.461Z" fill="white"/>
<path id="Vector_2" d="M31.7172 66.9211C37.6488 66.6272 43.6295 66.8232 49.6102 66.8232C91.7691 66.8232 133.977 66.8232 176.136 66.7742C177.95 66.7742 180.303 66.5782 181.43 65.5004C184.127 62.9039 186.234 59.6705 188.637 56.5841C187.264 55.7513 186.382 55.1634 185.499 54.6735C162.018 41.495 138.585 28.2675 115.055 15.236C111.035 13.0314 108.191 10.5819 107.407 5.8298C107.064 3.7722 105.495 1.91055 104.466 -0.0490723C104.025 -0.0490723 103.976 -0.0490723 103.534 -0.0490723C102.554 2.40046 101.181 4.801 100.74 7.29952C100.103 10.7289 98.289 12.5905 95.2987 14.1582C83.7295 20.282 72.3074 26.6018 60.8362 32.8726C46.5218 40.6622 32.2074 48.5007 17.6969 56.3881C19.6578 58.6907 21.6187 60.6013 23.0893 62.8059C25.1973 66.0883 27.9915 66.9701 31.7662 66.7742L31.7172 66.9211ZM57.1596 48.9906C71.1799 41.544 85.2492 34.2444 99.2204 26.7488C102.701 24.8872 105.544 24.2993 109.368 26.4549C126.33 35.9101 143.487 44.9733 160.547 54.1346C161.429 54.5755 162.214 55.1144 164.224 56.2902H44.1197C48.9239 53.5957 52.9927 51.1951 57.1596 48.9906Z" fill="white"/>
<path id="Vector_3" d="M35.2958 71.5264C30.8838 100.725 26.4719 129.776 22.0109 159.122H56.9635C54.0222 129.58 51.1789 100.578 48.2866 71.5264H35.2958Z" fill="white"/>
<path id="Vector_4" d="M97.7008 71.3794C97.5538 71.3794 97.4557 71.4774 96.8184 71.7223C94.0242 100.088 91.2299 128.356 88.4357 156.966C99.9558 155.3 111.035 153.635 122.212 152.018C118.633 128.698 115.104 105.869 111.574 83.0392C110.267 74.5801 105.642 70.6935 97.7008 71.3794Z" fill="white"/>
<path id="Vector_5" d="M161.871 71.5264C159.272 97.8833 156.723 123.848 154.125 150.205H186.774C182.754 123.848 178.783 97.6874 174.812 71.5264H161.871Z" fill="white"/>
<path id="Vector_6" d="M14.7556 164.462V178.522C29.2661 173.819 43.1393 169.263 58.042 164.462H14.7556Z" fill="white"/>
<path id="Vector_7" d="M102.064 31.0111C94.1222 35.0283 86.2297 39.0945 78.3371 43.2097C73.3369 45.8062 68.4347 48.5007 63.4344 51.1462C63.5325 51.5381 63.5325 51.4892 63.6305 51.8321H145.252C145.35 51.3912 145.35 51.4402 145.448 50.9992C132.212 44.0916 119.025 37.1349 105.691 30.3742C104.809 29.9333 103.142 30.3742 102.064 30.9621V31.0111Z" fill="white"/>
</g>
<defs>
<clipPath id="clip0_40_691">
<rect width="203" height="199" fill="white"/>
</clipPath>
</defs>
</svg>
