<svg width="68" height="66" viewBox="0 0 68 66" fill="none" xmlns="http://www.w3.org/2000/svg">
<g id="isologo" clip-path="url(#clip0_206_499)">
<path id="Vector" d="M67.8194 51.9941C66.6864 51.9941 65.5533 52.0266 64.4367 51.9616C52.1865 51.1817 40.0513 52.0266 28.031 54.5613C18.3425 56.6086 9.04811 59.7932 0.0164795 63.7253C0.262797 64.9276 0.213533 64.7001 0.459851 65.9025C2.9066 65.935 5.33693 65.9838 7.78369 65.9838C13.9088 65.9838 20.0503 66 26.1754 65.9675C26.9964 65.9675 27.8832 65.805 28.6221 65.4638C39.4437 60.4269 50.8892 57.3885 62.5975 55.2112C64.4038 54.87 66.2102 54.6263 68.0165 54.3338C67.9015 52.904 67.9508 53.4239 67.8358 51.9941H67.8194Z" fill="white"/>
<path id="Vector_2" d="M10.6244 22.195C12.6114 22.0975 14.6148 22.1625 16.6181 22.1625C30.7403 22.1625 44.879 22.1625 59.0011 22.1462C59.6087 22.1462 60.3969 22.0813 60.7746 21.7238C61.6778 20.8626 62.3839 19.7903 63.1885 18.7666C62.7287 18.4904 62.4332 18.2954 62.1376 18.133C54.2719 13.7622 46.4225 9.3752 38.5404 5.05319C37.1939 4.32202 36.2414 3.50961 35.9787 1.93354C35.8637 1.25112 35.3383 0.633691 34.9934 -0.0162354C34.8456 -0.0162354 34.8292 -0.0162354 34.6814 -0.0162354C34.353 0.796172 33.8932 1.59233 33.7454 2.42099C33.5319 3.55836 32.9244 4.17579 31.9227 4.69573C28.0473 6.72675 24.2211 8.82276 20.3786 10.9025C15.5836 13.486 10.7886 16.0857 5.92798 18.7016C6.58482 19.4653 7.24167 20.099 7.73431 20.8301C8.44042 21.9188 9.37642 22.2112 10.6409 22.1462L10.6244 22.195ZM19.147 16.2482C23.8435 13.7784 28.5563 11.3575 33.2364 8.8715C34.4023 8.25407 35.3547 8.0591 36.6355 8.77402C42.3173 11.9099 48.0647 14.9158 53.7792 17.9542C54.0748 18.1005 54.3375 18.2792 55.0108 18.6691H14.779C16.3883 17.7755 17.7512 16.9793 19.147 16.2482Z" fill="white"/>
<path id="Vector_3" d="M11.8232 23.7223C10.3453 33.4062 8.86737 43.0413 7.37305 52.774H19.0813C18.0961 42.9763 17.1436 33.3574 16.1748 23.7223H11.8232Z" fill="white"/>
<path id="Vector_4" d="M32.7274 23.6736C32.6781 23.6736 32.6453 23.7061 32.4318 23.7873C31.4958 33.195 30.5598 42.5702 29.6238 52.0591C33.4828 51.5067 37.1939 50.9542 40.938 50.418C39.7392 42.6839 38.5569 35.1123 37.3746 27.5406C36.9367 24.7351 35.3876 23.4461 32.7274 23.6736Z" fill="white"/>
<path id="Vector_5" d="M54.2226 23.7223C53.3523 32.4638 52.4984 41.0753 51.6281 49.8168H62.5645C61.218 41.0753 59.8879 32.3988 58.5578 23.7223H54.2226Z" fill="white"/>
<path id="Vector_6" d="M4.94275 54.5451V59.2083C9.80341 57.6485 14.4506 56.1374 19.4426 54.5451H4.94275Z" fill="white"/>
<path id="Vector_7" d="M34.1889 10.2851C31.5287 11.6174 28.8849 12.966 26.2411 14.3309C24.5661 15.192 22.924 16.0857 21.249 16.9631C21.2819 17.093 21.2819 17.0768 21.3147 17.1905H48.6559C48.6888 17.0443 48.6888 17.0605 48.7216 16.9143C44.2879 14.6233 39.8706 12.3161 35.4041 10.0738C35.1085 9.92761 34.5502 10.0738 34.1889 10.2688V10.2851Z" fill="white"/>
</g>
<defs>
<clipPath id="clip0_206_499">
<rect width="68" height="66" fill="white"/>
</clipPath>
</defs>
</svg>
