<svg width="104" height="102" viewBox="0 0 104 102" fill="none" xmlns="http://www.w3.org/2000/svg">
<g id="isologo" clip-path="url(#clip0_102_650)">
<path id="Vector" d="M112.7 87.4445C110.817 87.4445 108.934 87.4992 107.079 87.3899C86.7216 86.0782 66.5557 87.4992 46.5808 91.7621C30.4809 95.2053 15.0358 100.561 0.0273438 107.174C0.436665 109.196 0.354801 108.814 0.764122 110.836C4.83005 110.891 8.86869 110.973 12.9346 110.973C23.1131 110.973 33.3188 111 43.4973 110.945C44.8617 110.945 46.3352 110.672 47.5632 110.098C65.5461 101.627 84.5659 96.5169 104.022 92.8552C107.024 92.2813 110.026 91.8714 113.027 91.3796C112.836 88.9748 112.918 89.8493 112.727 87.4445H112.7Z" fill="#080D3B"/>
<path id="Vector_2" d="M17.6553 37.3279C20.9572 37.1639 24.2864 37.2732 27.6155 37.2732C51.0833 37.2732 74.5783 37.2732 98.0461 37.2459C99.0557 37.2459 100.366 37.1366 100.993 36.5354C102.494 35.0871 103.667 33.2836 105.005 31.562C104.24 31.0975 103.749 30.7696 103.258 30.4963C90.1871 23.1455 77.1434 15.7673 64.0451 8.4985C61.8075 7.26882 60.2248 5.90249 59.7882 3.25183C59.5971 2.10412 58.7239 1.06571 58.1509 -0.0273438C57.9053 -0.0273438 57.878 -0.0273438 57.6324 -0.0273438C57.0866 1.33898 56.3226 2.67797 56.077 4.07162C55.7222 5.98447 54.7126 7.02288 53.048 7.89732C46.608 11.3131 40.2499 14.8382 33.8645 18.336C25.8964 22.6809 17.9282 27.0532 9.85095 31.4527C10.9425 32.7371 12.034 33.8028 12.8526 35.0325C14.026 36.8633 15.5815 37.3552 17.6826 37.2459L17.6553 37.3279ZM31.8179 27.3264C39.6223 23.1728 47.4539 19.1012 55.231 14.9202C57.1685 13.8818 58.7512 13.5539 60.8797 14.7563C70.3214 20.0303 79.8722 25.0857 89.3685 30.1957C89.8596 30.4416 90.2962 30.7422 91.4151 31.3981H24.5592C27.2335 29.8951 29.4984 28.5561 31.8179 27.3264Z" fill="#080D3B"/>
<path id="Vector_3" d="M19.6474 39.8966C17.1915 56.1832 14.7355 72.3877 12.2523 88.7563H31.7087C30.0714 72.2784 28.4887 56.1012 26.8787 39.8966H19.6474Z" fill="#080D3B"/>
<path id="Vector_4" d="M54.3852 39.8146C54.3034 39.8146 54.2488 39.8693 53.894 40.0059C52.3386 55.8279 50.7832 71.5953 49.2278 87.5539C55.6405 86.6248 61.8076 85.6957 68.0293 84.794C66.0373 71.7866 64.0725 59.0525 62.1078 46.3183C61.3801 41.6 58.8059 39.4321 54.3852 39.8146Z" fill="#080D3B"/>
<path id="Vector_5" d="M90.1052 39.8966C88.659 54.5982 87.24 69.0812 85.7937 83.7829H103.968C101.73 69.0812 99.5196 54.4889 97.3093 39.8966H90.1052Z" fill="#080D3B"/>
<path id="Vector_6" d="M8.21375 91.7349V99.5775C16.291 96.9542 24.0136 94.4129 32.3091 91.7349H8.21375Z" fill="#080D3B"/>
<path id="Vector_7" d="M56.8138 17.2977C52.3931 19.5385 47.9998 21.8065 43.6064 24.102C40.823 25.5503 38.0942 27.0532 35.3108 28.5289C35.3654 28.7475 35.3654 28.7201 35.4199 28.9114H80.8546C80.9092 28.6655 80.9092 28.6928 80.9638 28.4469C73.596 24.5938 66.2555 20.7135 58.8331 16.9424C58.3419 16.6965 57.4141 16.9424 56.8138 17.2704V17.2977Z" fill="#080D3B"/>
</g>
<defs>
<clipPath id="clip0_102_650">
<rect width="113" height="111" fill="white"/>
</clipPath>
</defs>
</svg>
